# Blender 3.4.0
# www.blender.org
mtllib untitled.mtl
o Cube
v 2.692476 2.157517 -0.580431
v 1.700220 -0.120941 -0.580431
v 2.692476 2.157517 0.580431
v 1.700220 -0.120941 0.580431
v 0.394022 2.525369 -0.580431
v -0.384370 -1.456757 -0.580431
v 0.394022 2.525369 0.580431
v -0.384370 -1.456757 0.580431
v 1.878074 -1.679052 -0.580431
v 1.878074 -1.679052 0.580431
v 3.728463 -0.442228 0.580431
v 3.728463 -0.442228 -0.580431
v 1.446405 -5.676382 -0.550434
v 1.446405 -5.676382 0.550434
vn 0.1580 0.9874 -0.0000
vn -0.0000 -0.0000 1.0000
vn -0.9814 0.1918 -0.0000
vn 0.9168 -0.3993 -0.0000
vn -0.0000 -0.0000 -1.0000
vn 0.0054 -0.0081 1.0000
vn 0.0054 -0.0081 -1.0000
vn 0.1565 0.9877 -0.0000
vn -0.0978 -0.9952 -0.0000
vn 0.9167 -0.3997 -0.0000
vn -0.9942 0.1074 -0.0000
vt 0.625000 0.500000
vt 0.491909 0.500000
vt 0.625000 0.750000
vt 0.491909 0.750000
vt 0.875000 0.500000
vt 0.625000 0.250000
vt 0.375000 0.250000
vt 0.875000 0.750000
vt 0.625000 1.000000
vt 0.625000 0.000000
vt 0.375000 1.000000
vt 0.375000 0.000000
vt 0.375000 0.250000
vt 0.375000 1.000000
vt 0.375000 0.000000
vt 0.491909 0.750000
vt 0.491909 0.500000
vt 0.375000 0.250000
vt 0.375000 0.000000
s 0
usemtl Material
f 1/1/1 5/5/1 7/8/1 3/3/1
f 4/4/2 3/3/2 7/9/2 8/11/2
f 8/12/3 7/10/3 5/6/3 6/7/3
f 2/2/4 1/1/4 3/3/4 4/4/4
f 6/7/5 5/6/5 1/1/5 2/2/5
f 11/16/6 10/14/6 14/19/6
f 13/18/7 9/13/7 12/17/7
f 4/4/2 8/11/2 10/14/2 11/16/2
f 6/7/5 2/2/5 12/17/5 9/13/5
f 2/2/8 4/4/8 11/16/8 12/17/8
f 8/12/9 6/7/9 9/13/9 10/15/9
f 14/19/10 13/18/10 12/17/10 11/16/10
f 10/15/11 9/13/11 13/18/11 14/19/11
